<svg width="139" height="31" viewBox="0 0 139 31" fill="none" xmlns="http://www.w3.org/2000/svg">
<path d="M96.8411 21.5169C99.1133 21.5169 100.536 20.3079 100.536 15.4286C100.536 10.5483 99.1132 9.33934 96.8411 9.33934C94.5706 9.33934 93.1482 10.5483 93.1482 15.4276C93.1482 20.3079 94.5707 21.5169 96.8411 21.5169ZM88.9251 15.4583C88.9251 8.42109 93.1307 6.61548 96.8411 6.61548C100.552 6.61548 104.758 8.42109 104.758 15.4583C104.758 22.4972 100.345 24.2403 96.8411 24.2403C93.3398 24.2403 88.9251 22.4972 88.9251 15.4583Z" fill="white"/>
<path d="M88.8535 24.0299L82.1715 14.8111H82.1708L88.0467 7.21501H83.2916L77.8997 14.3289H77.8433V8.77462H77.8422C77.831 8.03663 77.0761 6.82593 75.254 6.82593C75.0243 6.82593 74.244 6.84881 73.7462 6.94623V24.0299H77.8434V15.2637H77.8998L84.1835 24.0299H88.8536H88.8535Z" fill="white"/>
<path d="M58.7491 14.0865C57.4318 12.4006 57.5546 10.0391 58.6715 8.69465C60.1422 6.92551 62.2388 6.63025 64.3364 6.63025C67.9965 6.63025 70.4391 8.35673 70.4391 8.35673L69.3825 10.3527C68.2949 9.91515 63.9198 8.45045 62.2864 9.94662C61.3799 10.7778 61.4944 12.2951 63.4157 12.9812C66.8136 14.1944 71.368 15.2296 71.368 19.0416C71.368 22.3063 67.9999 24.2261 64.4661 24.2261C60.3644 24.2261 58.3413 22.5437 57.3058 21.7888C57.3065 21.7817 58.7889 19.8439 58.7896 19.8439C64.337 22.9942 66.9918 21.2187 67.2467 19.9254C67.3907 19.1962 67.1868 18.4004 66.139 17.8423C64.7865 17.1212 60.1128 15.8332 58.749 14.0866L58.7491 14.0865Z" fill="white"/>
<path d="M115.9 6.82593C114.674 6.82593 112.937 6.9786 110.978 8.26844C110.531 7.64046 109.708 7.09121 108.24 7.09121C107.958 7.09121 107.644 7.11409 107.325 7.15965V24.0299H111.423V10.6187C112.318 10.1689 115.533 9.21217 116.911 10.6204C117.687 11.4146 117.843 12.5357 117.843 13.5848V24.0299H121.94V12.8158C121.94 8.83258 118.853 6.82603 115.899 6.82603L115.9 6.82593Z" fill="white"/>
<path d="M128.229 18.6468C128.229 15.2108 132.546 15.0869 134.526 15.0869V20.1843C132.91 21.1903 131.52 21.3053 130.717 21.3053C129.781 21.3053 128.229 20.8598 128.229 18.6468H128.229ZM131.611 6.64209C127.681 6.64209 124.88 8.66463 124.88 8.66463L126.047 10.5757C128.247 9.56778 130.515 9.09088 132.367 9.51413C134.982 10.1124 134.526 13.1452 134.526 13.1452C132.343 13.075 124.11 12.476 124.11 18.9605C124.11 21.7133 125.7 23.7187 129.039 24.1439C131.145 24.4138 133.04 23.8903 134.777 22.6679C135.157 23.4228 135.992 24.1785 137.717 24.1785C137.997 24.1785 138.304 24.1573 138.624 24.1113V11.9592C138.624 7.66775 134.224 6.64209 131.611 6.64209Z" fill="white"/>
<path d="M44.8412 18.6468C44.8412 15.2108 49.1581 15.0869 51.1382 15.0869V20.1843C49.5229 21.1903 48.1315 21.3053 47.3289 21.3053C46.393 21.3053 44.8413 20.8598 44.8413 18.6468H44.8412ZM48.2232 6.64209C44.2922 6.64209 41.4926 8.66463 41.4926 8.66463L42.659 10.5757C44.8589 9.56778 47.1269 9.09088 48.98 9.51413C51.5938 10.1124 51.1383 13.1452 51.1383 13.1452C48.955 13.075 40.7222 12.476 40.7222 18.9605C40.7222 21.7133 42.3122 23.7187 45.6509 24.1439C47.7573 24.4138 49.6517 23.8903 51.3892 22.6679C51.7695 23.4228 52.6045 24.1785 54.3296 24.1785C54.6092 24.1785 54.9159 24.1573 55.2354 24.1113V11.9592C55.2354 7.66775 50.8363 6.64209 48.2232 6.64209Z" fill="white"/>
<path d="M14.5437 0H14.5384C13.1841 0.00179852 12.0841 1.10179 12.0859 2.45218C12.0887 3.79698 13.1904 4.89268 14.543 4.89268C15.9015 4.89018 17.005 3.79028 17.0029 2.44159C17.0004 1.0958 15.8969 0 14.5437 0V0Z" fill="white"/>
<path d="M14.5437 25.9894H14.5384C13.1841 25.9912 12.0841 27.0911 12.0859 28.4416C12.0887 29.7864 13.1904 30.8821 14.543 30.8821C15.9015 30.8793 17.005 29.7804 17.0029 28.431C17.0004 27.0848 15.8969 25.9894 14.5437 25.9894Z" fill="white"/>
<path d="M23.8217 3.06287H23.8147C21.9908 3.06636 20.5095 4.54665 20.5113 6.36455C20.5148 8.17776 21.9989 9.65275 23.82 9.65275C25.6491 9.64925 27.1367 8.16897 27.1332 6.35146C27.1303 4.53785 25.6445 3.06287 23.8217 3.06287Z" fill="white"/>
<path d="M23.8217 21.2356H23.8147C21.9908 21.2381 20.5095 22.7194 20.5113 24.5372C20.5148 26.3505 21.9989 27.8255 23.82 27.8255C25.6491 27.822 27.1367 26.341 27.1332 24.5242C27.1303 22.7106 25.6445 21.2356 23.8217 21.2356Z" fill="white"/>
<path d="M2.90517 15.3846C2.90517 16.1822 2.25441 16.8299 1.45207 16.8299C0.650526 16.8299 6.10352e-05 16.1822 6.10352e-05 15.3846C6.10352e-05 14.5858 0.650526 13.9385 1.45207 13.9385C2.25441 13.9385 2.90517 14.5858 2.90517 15.3846Z" fill="white"/>
<path d="M6.94803 6.35784C6.94803 7.33294 6.15348 8.12389 5.17349 8.12389C4.1928 8.12389 3.39795 7.33294 3.39795 6.35784C3.39795 5.38285 4.1928 4.5918 5.17349 4.5918C6.15348 4.5918 6.94803 5.38285 6.94803 6.35784Z" fill="white"/>
<path d="M6.94803 24.5306C6.94803 25.5057 6.15348 26.2966 5.17349 26.2966C4.1928 26.2966 3.39795 25.5057 3.39795 24.5306C3.39795 23.5555 4.1928 22.7645 5.17349 22.7645C6.15348 22.7645 6.94803 23.5555 6.94803 24.5306Z" fill="white"/>
<path d="M27.5826 11.0529H27.5731C25.176 11.0571 23.2279 13.0041 23.2303 15.3938C23.2356 17.7765 25.1865 19.7164 27.5802 19.7164C29.9858 19.7111 31.9401 17.7641 31.9366 15.3755C31.932 12.9917 29.9787 11.0529 27.5826 11.0529Z" fill="white"/>
</svg>
