<svg width="60" height="60" viewBox="0 0 60 60" fill="none" xmlns="http://www.w3.org/2000/svg">
<g filter="url(#filter0_d_783_11)">
<circle cx="27" cy="27" r="26" fill="white"/>
</g>
<path fill-rule="evenodd" clip-rule="evenodd" d="M11.25 41.1875V23.3985L20.25 19.8125V37.6016L18.0301 38.4754C16.8801 38.9354 12.1497 40.7558 11.25 41.1875H11.25ZM9 22.4844V43.0156C9 43.4583 9.4494 44 10.1953 44C10.624 44 15.2754 42.0523 15.7801 41.8504L21.375 39.6406L29.6819 42.9352C30.1618 43.127 30.6321 43.3155 31.0881 43.4977C33.1294 44.3135 32.5508 44.1409 35.9196 42.7946L43.855 39.6207C44.3336 39.4314 44.9999 39.1275 44.9999 38.5156V24.7343C44.9999 23.586 43.0144 23.3215 42.7652 24.609L42.7499 37.6015L33.75 41.1874C33.75 40.5615 33.8122 29.3955 33.7213 29.052C33.4471 28.0159 31.8988 27.9515 31.5454 28.9986C31.404 29.4176 31.4999 40.4579 31.4999 41.1874L22.5 37.6015V19.8125L28.0547 21.9922C28.8384 21.9922 29.25 21.4877 29.25 20.6562C29.25 19.9225 28.2594 19.6415 27.6829 19.4108C26.6723 19.0064 22.0026 17 21.3047 17C20.9302 17 18.5964 17.9991 18.0804 18.2053C17.0386 18.6217 15.9818 19.0452 14.9163 19.471C13.8745 19.8873 12.8177 20.3108 11.7522 20.7366C10.7697 21.1293 9 21.5989 9 22.4844L9 22.4844Z" fill="#00C8C1"/>
<path fill-rule="evenodd" clip-rule="evenodd" d="M37.1953 25.3672H37.0546C36.9993 25.1598 36.8839 25.0788 36.7439 24.9044C35.3765 23.2007 34.8406 22.4975 33.6093 20.6562C32.9706 19.7011 32.3043 18.4804 31.8707 17.4027C30.2129 13.2824 34.9689 8.52592 39.7041 10.9052C40.3706 11.2401 41.0856 11.825 41.5156 12.3984C42.0151 13.0646 42.3682 13.6851 42.5806 14.638C42.817 15.6986 42.7371 16.5132 42.3792 17.4027C41.771 18.9143 40.8757 20.3105 40.0225 21.585L37.9206 24.4049C37.7401 24.6282 37.2564 25.1381 37.1952 25.3671L37.1953 25.3672ZM36.5123 8H37.7514C38.6878 8.07495 39.6261 8.32032 40.5247 8.7488C43.3026 10.0735 45 12.8119 45 16.0156C45 19.0086 40.7597 24.7914 38.9005 26.7911C38.1436 27.6053 37.9861 28.25 36.9844 28.25C36.3261 28.25 34.8458 26.22 34.4835 25.7586C32.9503 23.8064 31.3145 21.6167 30.2473 19.3776C30.1674 19.2098 30.1254 19.1139 30.047 18.9452C29.4654 17.6944 29.25 16.8664 29.25 15.4531C29.25 14.482 29.6621 13.1489 29.9992 12.4757C31.3392 9.80015 33.8418 8.21302 36.5123 8V8Z" fill="#00C8C1"/>
<path fill-rule="evenodd" clip-rule="evenodd" d="M36 15.9451C35.9434 15.5793 36.3317 14.8171 37.0681 14.7669C37.6909 14.7244 38.1948 15.2595 38.2329 15.8179C38.2962 16.7461 37.1393 17.3723 36.3805 16.6895C36.1902 16.5182 36.0316 16.1495 35.9999 15.9451H36ZM33.75 15.6639C33.75 16.7767 33.9961 17.534 34.731 18.2688C36.2332 19.7711 38.8383 19.659 40.1642 17.3671C40.6055 16.6041 40.6098 15.2028 40.1906 14.4264C39.9873 14.0498 39.7962 13.758 39.519 13.4808C37.3079 11.2698 33.75 13.0873 33.75 15.6639V15.6639Z" fill="#00C8C1"/>
<defs>
<filter id="filter0_d_783_11" x="0" y="0" width="60" height="60" filterUnits="userSpaceOnUse" color-interpolation-filters="sRGB">
<feFlood flood-opacity="0" result="BackgroundImageFix"/>
<feColorMatrix in="SourceAlpha" type="matrix" values="0 0 0 0 0 0 0 0 0 0 0 0 0 0 0 0 0 0 127 0" result="hardAlpha"/>
<feOffset dx="3" dy="3"/>
<feGaussianBlur stdDeviation="2"/>
<feComposite in2="hardAlpha" operator="out"/>
<feColorMatrix type="matrix" values="0 0 0 0 0 0 0 0 0 0 0 0 0 0 0 0 0 0 0.25 0"/>
<feBlend mode="normal" in2="BackgroundImageFix" result="effect1_dropShadow_783_11"/>
<feBlend mode="normal" in="SourceGraphic" in2="effect1_dropShadow_783_11" result="shape"/>
</filter>
</defs>
</svg>
