<svg width="60" height="60" viewBox="0 0 60 60" fill="none" xmlns="http://www.w3.org/2000/svg">
<g filter="url(#filter0_d_759_3)">
<circle cx="27" cy="27" r="26" fill="white" fill-opacity="0.5" shape-rendering="crispEdges"/>
</g>
<path d="M14.1306 15.5088H24.1189C24.7706 15.5088 25.3622 15.7746 25.7905 16.2028C26.2186 16.631 26.4844 17.2226 26.4844 17.8743V36.8953C26.4844 37.547 26.2186 38.1386 25.7905 38.5669C25.3622 38.995 24.7706 39.2608 24.1189 39.2608H14.1306C13.479 39.2608 12.8873 38.995 12.4591 38.5669C12.0309 38.1386 11.7651 37.547 11.7651 36.8953V17.8743C11.7651 17.2226 12.0309 16.631 12.4591 16.2028C12.8873 15.7746 13.479 15.5088 14.1306 15.5088ZM24.1189 17.8572H14.1306C14.1271 17.8572 14.123 17.8595 14.1195 17.8631C14.1159 17.8667 14.1136 17.8708 14.1136 17.8743V36.8952C14.1136 36.8987 14.1159 36.9027 14.1195 36.9063C14.1231 36.91 14.1272 36.9122 14.1306 36.9122H24.1189C24.1224 36.9122 24.1264 36.91 24.13 36.9063C24.1336 36.9027 24.1359 36.8986 24.1359 36.8952V17.8743C24.1359 17.8707 24.1336 17.8667 24.13 17.8631C24.1264 17.8595 24.1223 17.8572 24.1189 17.8572Z" fill="#00C8C1"/>
<path d="M30.4286 15.5088H40.4168C41.0686 15.5088 41.6602 15.7746 42.0884 16.2028C42.5166 16.631 42.7824 17.2226 42.7824 17.8743V36.8953C42.7824 37.547 42.5166 38.1386 42.0884 38.5669C41.6602 38.995 41.0686 39.2608 40.4168 39.2608H30.4286C29.777 39.2608 29.1853 38.995 28.757 38.5669C28.3289 38.1386 28.0631 37.547 28.0631 36.8953V17.8743C28.0631 17.2226 28.3289 16.631 28.757 16.2028C29.1853 15.7746 29.777 15.5088 30.4286 15.5088ZM40.4168 17.8572H30.4286C30.4251 17.8572 30.421 17.8595 30.4175 17.8631C30.4138 17.8667 30.4116 17.8708 30.4116 17.8743V36.8952C30.4116 36.8987 30.4138 36.9027 30.4175 36.9063C30.4211 36.91 30.4252 36.9122 30.4286 36.9122H40.4168C40.4204 36.9122 40.4244 36.91 40.428 36.9063C40.4316 36.9027 40.4339 36.8986 40.4339 36.8952V17.8743C40.4339 17.8707 40.4316 17.8667 40.428 17.8631C40.4244 17.8595 40.4203 17.8572 40.4168 17.8572Z" fill="#00C8C1"/>
<path d="M43.0888 14.3484H10.9112C10.4827 14.3484 10.0922 14.5246 9.80848 14.8084C9.52473 15.0921 9.34852 15.4826 9.34852 15.9111V38.8583C9.34852 39.2868 9.52473 39.6773 9.80848 39.961C10.0922 40.2448 10.4827 40.421 10.9112 40.421H43.0888C43.5173 40.421 43.9078 40.2448 44.1915 39.961C44.4753 39.6773 44.6515 39.2868 44.6515 38.8583V15.9111C44.6515 15.4826 44.4753 15.0921 44.1915 14.8084C43.9078 14.5246 43.5173 14.3484 43.0888 14.3484ZM10.9112 12H43.0888C44.1655 12 45.1436 12.4397 45.852 13.1479C46.5602 13.8562 47 14.8344 47 15.9111V38.8583C47 39.935 46.5603 40.9131 45.852 41.6215C45.1437 42.3298 44.1656 42.7694 43.0888 42.7694H10.9112C9.83448 42.7694 8.85641 42.3298 8.14803 41.6215C7.43975 40.9132 7 39.935 7 38.8583V15.9111C7 14.8344 7.43966 13.8563 8.14803 13.1479C8.85631 12.4397 9.83448 12 10.9112 12V12Z" fill="#00C8C1"/>
<path d="M20.5992 33.602H19.3839C19.1137 33.602 18.8946 33.3829 18.8946 33.1127V24.9502L18.7855 25.0798C18.6124 25.2856 18.3052 25.312 18.0994 25.139C18.0833 25.1255 18.0683 25.1111 18.0544 25.0961L18.0535 25.0969L17.291 24.2688C17.1246 24.088 17.1205 23.8153 17.2714 23.6302L19.0017 21.4599C19.098 21.3388 19.2403 21.2756 19.3839 21.2755V21.2745H20.5993C20.8695 21.2745 21.0885 21.4936 21.0885 21.7638V33.1126C21.0885 33.3828 20.8695 33.6019 20.5993 33.6019L20.5992 33.602Z" fill="#00C8C1"/>
<path d="M39.263 24.7664C39.263 25.3183 39.1326 25.8451 38.8716 26.3464C38.62 26.8298 38.2461 27.2861 37.7496 27.7149L37.7318 27.7295L37.7324 27.7301C37.5934 27.8392 37.4041 27.9869 37.1246 28.2034C36.9628 28.3288 36.7653 28.4802 36.5157 28.6697L36.5161 28.6703C36.3302 28.8138 36.1216 28.9722 35.8964 29.1414C35.6496 29.3268 35.4533 29.473 35.2915 29.5924C34.9 29.943 34.6085 30.316 34.4171 30.711C34.2985 30.9558 34.2172 31.212 34.1729 31.4796H38.6843C38.9544 31.4796 39.1735 31.6987 39.1735 31.9688V33.1126C39.1735 33.3828 38.9544 33.6018 38.6843 33.6018H32.2502C31.9911 33.6018 31.779 33.4003 31.7621 33.1455C31.7579 33.0963 31.7536 33.0261 31.7491 32.9408C31.7462 32.8854 31.7439 32.8164 31.7421 32.7398C31.7407 32.6842 31.7394 32.6285 31.738 32.5528L31.7342 32.3619C31.7342 31.6259 31.8611 30.933 32.1152 30.283C32.3675 29.638 32.7461 29.0391 33.2513 28.4865L33.2502 28.4856C33.3885 28.3336 33.6797 28.0781 34.1233 27.7191C34.5343 27.3866 35.1191 26.9311 35.8769 26.3531C36.2997 26.0299 36.6116 25.7243 36.8125 25.4367C36.9834 25.1919 37.0689 24.9653 37.0689 24.7573C37.0689 23.7789 36.5469 23.2895 35.5029 23.2895C35.0509 23.2895 34.6549 23.3831 34.3149 23.5706C33.9735 23.7587 33.6783 24.0467 33.4296 24.4342C33.2839 24.6612 32.9819 24.727 32.7549 24.5814C32.7403 24.5719 32.7262 24.5618 32.7129 24.5512L31.7924 23.9057C31.5776 23.7556 31.5208 23.4634 31.6606 23.2444C31.768 23.0765 31.8828 22.9199 32.0043 22.7763C32.1252 22.6336 32.2588 22.4964 32.405 22.3657L32.4099 22.3615C32.5544 22.231 32.7 22.114 32.8463 22.0111C32.999 21.9039 33.1585 21.8063 33.3246 21.7191C33.4844 21.6344 33.6551 21.5573 33.8365 21.4876C34.0134 21.4195 34.1915 21.3624 34.371 21.3155C34.5569 21.2673 34.7434 21.2307 34.9311 21.2061C35.1272 21.1804 35.3159 21.1672 35.4972 21.1672C36.0375 21.1672 36.5369 21.2562 36.9986 21.434C37.2289 21.5234 37.4442 21.6304 37.6434 21.7553C37.8419 21.8798 38.025 22.0225 38.1916 22.1835C38.3606 22.3455 38.5103 22.5222 38.6416 22.7135C38.7693 22.8995 38.8807 23.1035 38.9767 23.3251C39.0743 23.5503 39.146 23.7817 39.1923 24.0185C39.2395 24.2599 39.263 24.5093 39.263 24.7662V24.7664Z" fill="#00C8C1"/>
<defs>
<filter id="filter0_d_759_3" x="0" y="0" width="60" height="60" filterUnits="userSpaceOnUse" color-interpolation-filters="sRGB">
<feFlood flood-opacity="0" result="BackgroundImageFix"/>
<feColorMatrix in="SourceAlpha" type="matrix" values="0 0 0 0 0 0 0 0 0 0 0 0 0 0 0 0 0 0 127 0" result="hardAlpha"/>
<feOffset dx="3" dy="3"/>
<feGaussianBlur stdDeviation="2"/>
<feComposite in2="hardAlpha" operator="out"/>
<feColorMatrix type="matrix" values="0 0 0 0 0 0 0 0 0 0 0 0 0 0 0 0 0 0 0.25 0"/>
<feBlend mode="normal" in2="BackgroundImageFix" result="effect1_dropShadow_759_3"/>
<feBlend mode="normal" in="SourceGraphic" in2="effect1_dropShadow_759_3" result="shape"/>
</filter>
</defs>
</svg>
