<svg width="40" height="24" viewBox="0 0 40 24" fill="none" xmlns="http://www.w3.org/2000/svg">
<rect x="6" y="4" width="5" height="15" fill="#FF0000"/>
<rect x="6" y="4" width="5" height="15" fill="#FF0000"/>
<path d="M4.47343 23.2775H31.1C32.3314 23.2775 33.45 22.7746 34.2602 21.9644C35.0705 21.1541 35.5734 20.0355 35.5734 18.8041V16.7318H37.001C37.8269 16.7318 38.5769 16.3948 39.12 15.8518C39.6629 15.3088 40 14.5587 40 13.7328V9.34828C40 8.5764 39.685 7.87545 39.1776 7.36805C38.6702 6.86065 37.9693 6.54568 37.1974 6.54568H35.5734V4.47341C35.5734 3.24198 35.0705 2.12334 34.2602 1.31315C33.45 0.502882 32.3314 -2.28882e-05 31.1 -2.28882e-05H4.47343C3.24207 -2.28882e-05 2.1234 0.502916 1.31317 1.31315C0.502939 2.12338 0 3.24202 0 4.47341V18.8041C0 20.0355 0.502973 21.1541 1.31317 21.9644C2.1234 22.7746 3.24207 23.2775 4.47343 23.2775ZM6.57088 20.0047H9.3778C10.027 20.0047 10.6164 19.7399 11.0429 19.3134C11.4694 18.8869 11.7342 18.2975 11.7342 17.6483V5.62922C11.7342 4.98003 11.4694 4.39062 11.0429 3.96412C10.6164 3.53761 10.027 3.27283 9.3778 3.27283H6.57088C5.92166 3.27283 5.33225 3.53761 4.90582 3.96412C4.47931 4.39062 4.21453 4.98003 4.21453 5.62922V17.6483C4.21453 18.2975 4.47931 18.8869 4.90582 19.3134C5.33229 19.7399 5.92166 20.0047 6.57088 20.0047ZM9.3778 17.6733H6.57088C6.5652 17.6733 6.55919 17.6701 6.55412 17.6651C6.54905 17.66 6.54588 17.654 6.54588 17.6483V5.62922C6.54588 5.62354 6.54909 5.61749 6.55412 5.61242C6.55919 5.60736 6.5652 5.60418 6.57088 5.60418H9.3778C9.38347 5.60418 9.38952 5.60739 9.39459 5.61242C9.39966 5.61749 9.40284 5.62354 9.40284 5.62922V17.6483C9.40284 17.654 9.39963 17.66 9.39459 17.6651C9.38952 17.6702 9.38347 17.6733 9.3778 17.6733ZM35.5734 14.4004V8.877H37.1974C37.3258 8.877 37.4434 8.93039 37.5293 9.01632C37.6153 9.10228 37.6687 9.21987 37.6687 9.34824V13.7328C37.6687 13.9152 37.5932 14.0819 37.4717 14.2034C37.3501 14.325 37.1834 14.4004 37.001 14.4004H35.5734ZM31.1 20.9461H4.47343C3.88558 20.9461 3.35027 20.7048 2.96147 20.316C2.57268 19.9272 2.33135 19.3919 2.33135 18.8041V4.47338C2.33135 3.88549 2.57268 3.35021 2.96147 2.96142C3.35023 2.57262 3.88554 2.33129 4.47343 2.33129H31.1C31.6879 2.33129 32.2232 2.57262 32.6119 2.96142C33.0007 3.35018 33.2421 3.88549 33.2421 4.47338V7.71132V15.5661V18.8041C33.2421 19.3919 33.0007 19.9273 32.6119 20.316C32.2231 20.7048 31.6879 20.9461 31.1 20.9461Z" fill="white"/>
</svg>
