<svg width="40" height="24" viewBox="0 0 40 24" fill="none" xmlns="http://www.w3.org/2000/svg">
<path d="M4.47343 23.2775H31.1C32.3314 23.2775 33.45 22.7746 34.2602 21.9644C35.0705 21.1541 35.5734 20.0355 35.5734 18.8041V16.7318H37.001C37.8269 16.7318 38.5769 16.3948 39.12 15.8518C39.6629 15.3088 40 14.5587 40 13.7328V9.34828C40 8.5764 39.685 7.87545 39.1776 7.36805C38.6702 6.86065 37.9693 6.54568 37.1974 6.54568H35.5734V4.47341C35.5734 3.24198 35.0705 2.12334 34.2602 1.31315C33.45 0.502882 32.3314 -2.28882e-05 31.1 -2.28882e-05H4.47343C3.24207 -2.28882e-05 2.1234 0.502916 1.31317 1.31315C0.502939 2.12338 0 3.24202 0 4.47341V18.8041C0 20.0355 0.502973 21.1541 1.31317 21.9644C2.1234 22.7746 3.24207 23.2775 4.47343 23.2775ZM35.5734 14.4004V8.877H37.1974C37.3258 8.877 37.4434 8.93039 37.5293 9.01632C37.6153 9.10228 37.6687 9.21987 37.6687 9.34824V13.7328C37.6687 13.9152 37.5932 14.0819 37.4717 14.2034C37.3501 14.325 37.1834 14.4004 37.001 14.4004H35.5734ZM31.1 20.9461H4.47343C3.88558 20.9461 3.35027 20.7048 2.96147 20.316C2.57268 19.9272 2.33135 19.3919 2.33135 18.8041V4.47338C2.33135 3.88549 2.57268 3.35021 2.96147 2.96142C3.35023 2.57262 3.88554 2.33129 4.47343 2.33129H31.1C31.6879 2.33129 32.2232 2.57262 32.6119 2.96142C33.0007 3.35018 33.2421 3.88549 33.2421 4.47338V7.71132V15.5661V18.8041C33.2421 19.3919 33.0007 19.9273 32.6119 20.316C32.2231 20.7048 31.6879 20.9461 31.1 20.9461Z" fill="white"/>
</svg>
