<svg width="48" height="32" viewBox="0 0 48 32" fill="none" xmlns="http://www.w3.org/2000/svg">
<g filter="url(#filter0_d_795_77)">
<rect x="9" y="4" width="5" height="15" fill="#FFD600"/>
<rect x="19" y="4" width="5" height="15" fill="#FFD600"/>
<path d="M8.47343 23.2775H35.1C36.3314 23.2775 37.45 22.7746 38.2602 21.9644C39.0705 21.1541 39.5734 20.0355 39.5734 18.8041V16.7318H41.001C41.8269 16.7318 42.5769 16.3948 43.12 15.8518C43.6629 15.3088 44 14.5587 44 13.7328V9.34828C44 8.5764 43.685 7.87545 43.1776 7.36805C42.6702 6.86065 41.9693 6.54568 41.1974 6.54568H39.5734V4.47341C39.5734 3.24198 39.0705 2.12334 38.2602 1.31315C37.45 0.502882 36.3314 -2.28882e-05 35.1 -2.28882e-05H8.47343C7.24207 -2.28882e-05 6.1234 0.502916 5.31317 1.31315C4.50294 2.12338 4 3.24202 4 4.47341V18.8041C4 20.0355 4.50297 21.1541 5.31317 21.9644C6.1234 22.7746 7.24207 23.2775 8.47343 23.2775ZM20.2644 20.0047H23.0713C23.7205 20.0047 24.3099 19.7399 24.7364 19.3134C25.1629 18.8869 25.4277 18.2975 25.4277 17.6483V5.62922C25.4277 4.98003 25.1629 4.39062 24.7364 3.96412C24.3099 3.53761 23.7205 3.27283 23.0713 3.27283H20.2644C19.6152 3.27283 19.0258 3.53761 18.5994 3.96412C18.1728 4.39062 17.9081 4.98003 17.9081 5.62922V17.6483C17.9081 18.2975 18.1728 18.8869 18.5994 19.3134C19.0258 19.7399 19.6152 20.0047 20.2644 20.0047ZM23.0713 17.6733H20.2644C20.2587 17.6733 20.2527 17.6701 20.2477 17.6651C20.2426 17.66 20.2394 17.654 20.2394 17.6483V5.62922C20.2394 5.62354 20.2426 5.61749 20.2477 5.61242C20.2527 5.60736 20.2587 5.60418 20.2644 5.60418H23.0713C23.077 5.60418 23.0831 5.60739 23.0881 5.61242C23.0932 5.61749 23.0964 5.62354 23.0964 5.62922V17.6483C23.0964 17.654 23.0932 17.66 23.0881 17.6651C23.0831 17.6702 23.077 17.6733 23.0713 17.6733ZM10.5709 20.0047H13.3778C14.027 20.0047 14.6164 19.7399 15.0429 19.3134C15.4694 18.8869 15.7342 18.2975 15.7342 17.6483V5.62922C15.7342 4.98003 15.4694 4.39062 15.0429 3.96412C14.6164 3.53761 14.027 3.27283 13.3778 3.27283H10.5709C9.92166 3.27283 9.33225 3.53761 8.90582 3.96412C8.47931 4.39062 8.21453 4.98003 8.21453 5.62922V17.6483C8.21453 18.2975 8.47931 18.8869 8.90582 19.3134C9.33229 19.7399 9.92166 20.0047 10.5709 20.0047ZM13.3778 17.6733H10.5709C10.5652 17.6733 10.5592 17.6701 10.5541 17.6651C10.5491 17.66 10.5459 17.654 10.5459 17.6483V5.62922C10.5459 5.62354 10.5491 5.61749 10.5541 5.61242C10.5592 5.60736 10.5652 5.60418 10.5709 5.60418H13.3778C13.3835 5.60418 13.3895 5.60739 13.3946 5.61242C13.3997 5.61749 13.4028 5.62354 13.4028 5.62922V17.6483C13.4028 17.654 13.3996 17.66 13.3946 17.6651C13.3895 17.6702 13.3835 17.6733 13.3778 17.6733ZM39.5734 14.4004V8.877H41.1974C41.3258 8.877 41.4434 8.93039 41.5293 9.01632C41.6153 9.10228 41.6687 9.21987 41.6687 9.34824V13.7328C41.6687 13.9152 41.5932 14.0819 41.4717 14.2034C41.3501 14.325 41.1834 14.4004 41.001 14.4004H39.5734ZM35.1 20.9461H8.47343C7.88558 20.9461 7.35027 20.7048 6.96147 20.316C6.57268 19.9272 6.33135 19.3919 6.33135 18.8041V4.47338C6.33135 3.88549 6.57268 3.35021 6.96147 2.96142C7.35023 2.57262 7.88554 2.33129 8.47343 2.33129H35.1C35.6879 2.33129 36.2232 2.57262 36.6119 2.96142C37.0007 3.35018 37.2421 3.88549 37.2421 4.47338V7.71132V15.5661V18.8041C37.2421 19.3919 37.0007 19.9273 36.6119 20.316C36.2231 20.7048 35.6879 20.9461 35.1 20.9461Z" fill="white"/>
</g>
<defs>
<filter id="filter0_d_795_77" x="0" y="0" width="48" height="31.2775" filterUnits="userSpaceOnUse" color-interpolation-filters="sRGB">
<feFlood flood-opacity="0" result="BackgroundImageFix"/>
<feColorMatrix in="SourceAlpha" type="matrix" values="0 0 0 0 0 0 0 0 0 0 0 0 0 0 0 0 0 0 127 0" result="hardAlpha"/>
<feOffset dy="4"/>
<feGaussianBlur stdDeviation="2"/>
<feComposite in2="hardAlpha" operator="out"/>
<feColorMatrix type="matrix" values="0 0 0 0 0 0 0 0 0 0 0 0 0 0 0 0 0 0 0.25 0"/>
<feBlend mode="normal" in2="BackgroundImageFix" result="effect1_dropShadow_795_77"/>
<feBlend mode="normal" in="SourceGraphic" in2="effect1_dropShadow_795_77" result="shape"/>
</filter>
</defs>
</svg>
