<svg width="10" height="16" viewBox="0 0 10 16" fill="none" xmlns="http://www.w3.org/2000/svg">
<path fill-rule="evenodd" clip-rule="evenodd" d="M1.66808e-05 7.74569C1.66808e-05 8.57891 0.606298 8.57375 1.80381 8.97429L3.92673 9.69262C3.8022 10.2291 1.41931 14.4784 1.41931 14.9636C1.41931 15.5767 2.11322 16.0084 2.75652 15.3561L9.07167 9.01596C9.5781 8.50764 9.93508 8.3491 9.93508 7.7457C9.93508 7.308 9.47817 7.15581 9.19617 7.06278L6.00837 5.98872C6.06898 5.72756 6.49222 4.96994 6.63916 4.67493L7.93228 2.079C8.0755 1.79153 8.51577 1.03434 8.51577 0.717719C8.51577 0.104668 7.82186 -0.327023 7.17857 0.325232C7.00187 0.504388 6.85974 0.646674 6.68252 0.824572L0.863409 6.6654C0.644982 6.88464 1.66808e-05 7.40254 1.66808e-05 7.74569Z" fill="white"/>
</svg>
